<svg width="25" height="24" viewBox="0 0 25 24" fill="none" xmlns="http://www.w3.org/2000/svg">
<path fill-rule="evenodd" clip-rule="evenodd" d="M2 9C2 6.6519 2.884 4.96152 4.1585 3.84633C5.45258 2.71401 7.20886 2.125 9 2.125C10.7911 2.125 12.5474 2.71401 13.8415 3.84633C15.116 4.96152 16 6.6519 16 9C16 11.3494 15.1145 13.0768 13.8306 14.2336C12.5294 15.4061 10.7695 16.0347 8.98438 16.0626C7.19964 16.0905 5.4531 15.5176 4.16509 14.3704C2.89517 13.2394 2 11.4883 2 9ZM18 9C18 6.09809 16.884 3.85098 15.1585 2.34117C13.4526 0.848488 11.2089 0.125 9 0.125C6.79114 0.125 4.54742 0.848487 2.8415 2.34117C1.116 3.85098 0 6.09809 0 9C0 12.0117 1.10483 14.3231 2.83491 15.864C4.5469 17.3887 6.80036 18.097 9.01562 18.0624C11.0423 18.0307 13.0901 17.3769 14.7249 16.0934L14.7296 16.0976L14.7727 16.1359L14.8156 16.1741L14.8584 16.2121L14.9011 16.2501L14.9436 16.2879L14.986 16.3255L15.0283 16.3631L15.0704 16.4005L15.1124 16.4378L15.1542 16.475L15.1959 16.5121L15.2375 16.549L15.2789 16.5858L15.3202 16.6226L15.3613 16.6591L15.4023 16.6956L15.4432 16.7319L15.484 16.7682L15.5246 16.8043L15.5651 16.8402L15.6054 16.8761L15.6456 16.9118L15.6857 16.9475L15.7256 16.983L15.7654 17.0183L15.8051 17.0536L15.8446 17.0887L15.884 17.1238L15.9233 17.1587L15.9625 17.1935L16.0015 17.2281L16.0403 17.2627L16.0791 17.2971L16.1177 17.3315L16.1562 17.3657L16.1945 17.3997L16.2327 17.4337L16.2708 17.4676L16.3088 17.5013L16.3466 17.5349L16.3843 17.5684L16.4218 17.6018L16.4593 17.6351L16.4966 17.6682L16.5337 17.7013L16.5708 17.7342L16.6077 17.767L16.6445 17.7997L16.6811 17.8323L16.7176 17.8647L16.754 17.8971L16.7903 17.9293L16.8264 17.9615L16.8625 17.9935L16.8983 18.0254L16.9341 18.0572L16.9697 18.0888L17.0052 18.1204L17.0406 18.1518L17.0759 18.1832L17.111 18.2144L17.146 18.2455L17.1809 18.2765L17.2156 18.3074L17.2502 18.3382L17.2847 18.3688L17.3191 18.3994L17.3533 18.4298L17.3875 18.4601L17.4214 18.4904L17.4553 18.5205L17.4891 18.5505L17.5227 18.5804L17.5562 18.6101L17.5896 18.6398L17.6228 18.6694L17.656 18.6988L17.689 18.7281L17.7218 18.7574L17.7546 18.7865L17.7873 18.8155L17.8198 18.8444L17.8522 18.8732L17.8844 18.9019L17.9166 18.9305L17.9486 18.959L17.9806 18.9873L18.0123 19.0156L18.044 19.0438L18.0756 19.0718L18.107 19.0997L18.1383 19.1276L18.1695 19.1553L18.2006 19.1829L18.2315 19.2104L18.2624 19.2378L18.2931 19.2651L18.3237 19.2923L18.3542 19.3194L18.3845 19.3464L18.4148 19.3733L18.4449 19.4001L18.4749 19.4268L18.5048 19.4533L18.5346 19.4798L18.5642 19.5062L18.5938 19.5324L18.6232 19.5586L18.6525 19.5846L18.6817 19.6106L18.7108 19.6364L18.7397 19.6622L18.7686 19.6878L18.7973 19.7134L18.8259 19.7388L18.8544 19.7641L18.8828 19.7894L18.9111 19.8145L18.9393 19.8395L18.9673 19.8644L18.9952 19.8893L19.023 19.914L19.0508 19.9386L19.0783 19.9632L19.1058 19.9876L19.1332 20.0119L19.1604 20.0361L19.1876 20.0603L19.2146 20.0843L19.2415 20.1082L19.2683 20.132L19.295 20.1558L19.3216 20.1794L19.3481 20.2029L19.3745 20.2264L19.4007 20.2497L19.4269 20.2729L19.4529 20.2961L19.4788 20.3191L19.5046 20.3421L19.5303 20.3649L19.5559 20.3877L19.5814 20.4103L19.6068 20.4329L19.632 20.4553L19.6572 20.4777L19.6823 20.5L19.7072 20.5221L19.732 20.5442L19.7568 20.5662L19.7814 20.5881L19.8059 20.6099L19.8303 20.6316L19.8546 20.6532L19.8788 20.6747L19.9029 20.6961L19.9269 20.7174L19.9507 20.7386L19.9745 20.7598L19.9982 20.7808L20.0217 20.8017L20.0452 20.8226L20.0685 20.8433L20.0918 20.864L20.1149 20.8846L20.138 20.905L20.1609 20.9254L20.1837 20.9457L20.2065 20.9659L20.2291 20.986L20.2516 21.0061L20.274 21.026L20.2963 21.0458L20.3185 21.0656L20.3407 21.0852L20.3627 21.1048L20.3846 21.1242L20.4064 21.1436L20.4281 21.1629L20.4497 21.1821L20.4712 21.2012L20.4926 21.2203L20.5139 21.2392L20.5351 21.258L20.5562 21.2768L20.5772 21.2955L20.5981 21.314L20.6189 21.3325L20.6396 21.3509L20.6602 21.3692L20.6807 21.3875L20.7011 21.4056L20.7214 21.4237L20.7416 21.4416L20.7617 21.4595L20.7817 21.4773L20.8017 21.495L20.8215 21.5126L20.8412 21.5301L20.8608 21.5476L20.8803 21.5649L20.8998 21.5822L20.9191 21.5994L20.9383 21.6165L20.9575 21.6335L20.9765 21.6504L20.9955 21.6673L21.0143 21.684L21.0331 21.7007L21.0518 21.7173L21.0703 21.7338L21.0888 21.7502L21.1072 21.7666L21.1255 21.7828L21.1437 21.799L21.1618 21.8151L21.1798 21.8311L21.1977 21.847L21.2155 21.8629L21.2333 21.8786L21.2509 21.8943L21.2685 21.9099L21.2859 21.9254L21.3033 21.9409L21.3205 21.9562L21.3377 21.9715L21.3548 21.9867L21.3718 22.0018L21.3887 22.0168L21.4055 22.0318L21.4223 22.0466L21.4389 22.0614L21.4554 22.0761L21.4719 22.0907L21.4883 22.1053L21.5045 22.1198L21.5207 22.1342L21.5368 22.1485L21.5528 22.1627L21.5687 22.1768L21.5846 22.1909L21.6003 22.2049L21.616 22.2188L21.6316 22.2327L21.647 22.2464L21.6624 22.2601L21.6777 22.2737L21.693 22.2873L21.7081 22.3007L21.7231 22.3141L21.7381 22.3274L21.753 22.3406L21.7678 22.3538L21.7825 22.3668L21.7971 22.3798L21.8116 22.3928L21.8261 22.4056L21.8405 22.4184L21.8547 22.4311L21.8689 22.4437L21.8831 22.4562L21.8971 22.4687L21.911 22.4811L21.9249 22.4934L21.9387 22.5057L21.9524 22.5178L21.966 22.5299L21.9795 22.542L21.993 22.5539L22.0063 22.5658L22.0196 22.5776L22.0328 22.5894L22.0459 22.601L22.059 22.6126L22.0719 22.6241L22.0848 22.6356L22.0976 22.647L22.1103 22.6583L22.123 22.6695L22.1355 22.6807L22.148 22.6917L22.1604 22.7028L22.1727 22.7137L22.185 22.7246L22.1971 22.7354L22.2092 22.7462L22.2212 22.7568L22.2331 22.7674L22.245 22.778L22.2568 22.7884L22.2685 22.7988L22.2801 22.8091L22.2916 22.8194L22.3031 22.8296L22.3145 22.8397L22.3258 22.8498L22.337 22.8597L22.3482 22.8696L22.3592 22.8795L22.3702 22.8893L22.3812 22.899L22.392 22.9086L22.4028 22.9182L22.4135 22.9277L22.4241 22.9372L22.4347 22.9466L22.4452 22.9559L22.4556 22.9651L22.4659 22.9743L22.4762 22.9834L22.4863 22.9925L22.4964 23.0015L22.5065 23.0104L22.5165 23.0192L22.5263 23.028L22.5362 23.0368L22.5459 23.0454L22.5556 23.054L22.5652 23.0626L22.5747 23.0711L22.5842 23.0795L22.5936 23.0878L22.6029 23.0961L22.6122 23.1043L22.6213 23.1125L22.6304 23.1206L22.6395 23.1286L22.6484 23.1366L22.6573 23.1445L22.6662 23.1523L22.6749 23.1601L22.6836 23.1679L22.6923 23.1755L22.7008 23.1831L22.7093 23.1907L22.7177 23.1982L22.7261 23.2056L22.7343 23.2129L22.7426 23.2202L22.7507 23.2275L22.7588 23.2347L22.7668 23.2418L22.7748 23.2489L22.7826 23.2559L22.7905 23.2628L22.7982 23.2697L22.8059 23.2765L22.8135 23.2833L22.8211 23.29L22.8285 23.2967L22.836 23.3033L22.8433 23.3098L22.8506 23.3163L22.8578 23.3227L22.865 23.3291L22.8721 23.3354L22.8791 23.3416L22.8861 23.3478L22.893 23.354L22.8999 23.3601L22.9067 23.3661L22.9134 23.3721L22.92 23.378L22.9266 23.3839L22.9332 23.3897L22.9397 23.3954L22.9461 23.4011L22.9524 23.4068L22.9587 23.4124L22.9649 23.4179L22.9711 23.4234L22.9772 23.4288L22.9833 23.4342L22.9892 23.4395L22.9952 23.4448L23.001 23.45L23.0069 23.4552L23.0126 23.4603L23.0183 23.4653L23.0239 23.4703L23.0295 23.4753L23.035 23.4802L23.0405 23.485L23.0459 23.4898L23.0512 23.4946L23.0565 23.4993L23.0617 23.5039L23.0669 23.5085L23.072 23.5131L23.0771 23.5176L23.0821 23.522L23.087 23.5264L23.0919 23.5307L23.0967 23.535L23.1015 23.5393L23.1062 23.5435L23.1109 23.5476L23.1155 23.5517L23.12 23.5558L23.1245 23.5598L23.129 23.5637L23.1334 23.5676L23.1377 23.5715L23.142 23.5753L23.1462 23.5791L23.1504 23.5828L23.1545 23.5864L23.1586 23.5901L23.1626 23.5936L23.1666 23.5972L23.1705 23.6006L23.1744 23.6041L23.1782 23.6075L23.1819 23.6108L23.1856 23.6141L23.1893 23.6173L23.1929 23.6205L23.1965 23.6237L23.2 23.6268L23.2034 23.6299L23.2068 23.6329L23.2102 23.6359L23.2135 23.6388L23.2167 23.6417L23.2199 23.6446L23.2231 23.6474L23.2262 23.6501L23.2293 23.6529L23.2323 23.6555L23.2352 23.6582L23.2382 23.6608L23.241 23.6633L23.2438 23.6658L23.2466 23.6683L23.2493 23.6707L23.252 23.6731L23.2547 23.6754L23.2572 23.6777L23.2598 23.68L23.2623 23.6822L23.2647 23.6844L23.2671 23.6865L23.2695 23.6886L23.2718 23.6907L23.274 23.6927L23.2763 23.6946L23.2784 23.6966L23.2806 23.6985L23.2827 23.7003L23.2847 23.7021L23.2867 23.7039L23.2887 23.7057L23.2906 23.7074L23.2924 23.709L23.2943 23.7106L23.296 23.7122L23.2978 23.7138L23.2995 23.7153L23.3011 23.7168L23.3028 23.7182L23.3043 23.7196L23.3059 23.721L23.3074 23.7223L23.3088 23.7236L23.3102 23.7248L23.3116 23.726L23.3129 23.7272L23.3142 23.7284L23.3154 23.7295L23.3167 23.7305L23.3178 23.7316L23.319 23.7326L23.32 23.7336L23.3211 23.7345L23.3221 23.7354L23.3231 23.7363L23.324 23.7371L23.3249 23.7379L23.3258 23.7387L23.3266 23.7394L23.3274 23.7401L23.3281 23.7407L23.3288 23.7414L23.3295 23.742L23.3302 23.7425L23.3308 23.7431L23.3313 23.7436L23.3319 23.7441L23.3324 23.7445L23.3328 23.7449L23.3332 23.7453L23.3336 23.7456L23.334 23.7459L23.3343 23.7462L23.3346 23.7465L23.3348 23.7467L23.335 23.7469L23.3352 23.747L23.3354 23.7472L23.3355 23.7473L23.3356 23.7474L23.3356 23.7474L23.3356 23.7474C23.7484 24.1143 24.3805 24.0772 24.7474 23.6644C25.1143 23.2516 25.0771 22.6195 24.6644 22.2526L24.6643 22.2526L24.6643 22.2525L24.6642 22.2525L24.6641 22.2524L24.664 22.2522L24.6638 22.2521L24.6636 22.2519L24.6633 22.2517L24.663 22.2514L24.6627 22.2511L24.6623 22.2508L24.662 22.2505L24.6615 22.2501L24.6611 22.2497L24.6606 22.2492L24.6601 22.2488L24.6595 22.2483L24.6589 22.2477L24.6583 22.2472L24.6576 22.2466L24.6569 22.2459L24.6561 22.2453L24.6553 22.2446L24.6545 22.2438L24.6536 22.2431L24.6528 22.2423L24.6518 22.2414L24.6508 22.2406L24.6498 22.2397L24.6488 22.2387L24.6477 22.2378L24.6466 22.2368L24.6454 22.2357L24.6442 22.2346L24.6429 22.2335L24.6416 22.2324L24.6403 22.2312L24.6389 22.23L24.6375 22.2287L24.6361 22.2275L24.6346 22.2261L24.6331 22.2248L24.6315 22.2234L24.6299 22.2219L24.6282 22.2205L24.6265 22.219L24.6248 22.2174L24.623 22.2158L24.6212 22.2142L24.6193 22.2125L24.6174 22.2108L24.6154 22.2091L24.6134 22.2073L24.6114 22.2055L24.6093 22.2036L24.6072 22.2018L24.605 22.1998L24.6028 22.1978L24.6005 22.1958L24.5982 22.1938L24.5958 22.1917L24.5934 22.1896L24.591 22.1874L24.5885 22.1852L24.586 22.1829L24.5834 22.1806L24.5807 22.1783L24.5781 22.1759L24.5753 22.1735L24.5726 22.171L24.5698 22.1685L24.5669 22.1659L24.564 22.1634L24.561 22.1607L24.558 22.158L24.5549 22.1553L24.5518 22.1526L24.5487 22.1498L24.5455 22.1469L24.5422 22.144L24.5389 22.1411L24.5356 22.1381L24.5322 22.1351L24.5287 22.132L24.5252 22.1289L24.5216 22.1257L24.518 22.1225L24.5144 22.1193L24.5107 22.116L24.5069 22.1126L24.5031 22.1092L24.4992 22.1058L24.4953 22.1023L24.4914 22.0988L24.4873 22.0952L24.4833 22.0916L24.4791 22.0879L24.475 22.0842L24.4707 22.0805L24.4664 22.0767L24.4621 22.0728L24.4577 22.0689L24.4533 22.065L24.4488 22.061L24.4442 22.0569L24.4396 22.0528L24.4349 22.0487L24.4302 22.0445L24.4254 22.0402L24.4206 22.0359L24.4157 22.0316L24.4108 22.0272L24.4058 22.0227L24.4007 22.0183L24.3956 22.0137L24.3904 22.0091L24.3852 22.0045L24.3799 21.9998L24.3746 21.995L24.3692 21.9902L24.3637 21.9854L24.3582 21.9805L24.3527 21.9755L24.347 21.9705L24.3413 21.9655L24.3356 21.9603L24.3298 21.9552L24.3239 21.95L24.318 21.9447L24.312 21.9394L24.3059 21.934L24.2998 21.9286L24.2937 21.9231L24.2874 21.9175L24.2811 21.912L24.2748 21.9063L24.2684 21.9006L24.2619 21.8949L24.2554 21.889L24.2488 21.8832L24.2421 21.8773L24.2354 21.8713L24.2286 21.8653L24.2218 21.8592L24.2148 21.853L24.2079 21.8468L24.2008 21.8406L24.1937 21.8343L24.1866 21.8279L24.1793 21.8215L24.1721 21.815L24.1647 21.8084L24.1573 21.8018L24.1498 21.7952L24.1422 21.7885L24.1346 21.7817L24.1269 21.7749L24.1192 21.768L24.1114 21.761L24.1035 21.754L24.0955 21.747L24.0875 21.7398L24.0794 21.7327L24.0713 21.7254L24.0631 21.7181L24.0548 21.7108L24.0464 21.7033L24.038 21.6958L24.0295 21.6883L24.021 21.6807L24.0124 21.673L24.0037 21.6653L23.9949 21.6575L23.9861 21.6497L23.9772 21.6418L23.9682 21.6338L23.9592 21.6258L23.9501 21.6177L23.9409 21.6095L23.9316 21.6013L23.9223 21.593L23.9129 21.5846L23.9035 21.5762L23.8939 21.5678L23.8843 21.5592L23.8746 21.5506L23.8649 21.542L23.8551 21.5332L23.8452 21.5244L23.8352 21.5156L23.8252 21.5066L23.8151 21.4977L23.8049 21.4886L23.7946 21.4795L23.7843 21.4703L23.7739 21.4611L23.7634 21.4517L23.7528 21.4424L23.7422 21.4329L23.7315 21.4234L23.7207 21.4138L23.7099 21.4042L23.699 21.3945L23.688 21.3847L23.6769 21.3748L23.6657 21.3649L23.6545 21.3549L23.6432 21.3449L23.6318 21.3348L23.6203 21.3246L23.6088 21.3143L23.5972 21.304L23.5855 21.2936L23.5737 21.2831L23.5619 21.2726L23.5499 21.262L23.5379 21.2513L23.5259 21.2406L23.5137 21.2298L23.5015 21.2189L23.4891 21.208L23.4767 21.1969L23.4643 21.1858L23.4517 21.1747L23.4391 21.1634L23.4263 21.1521L23.4135 21.1408L23.4007 21.1293L23.3877 21.1178L23.3747 21.1062L23.3615 21.0945L23.3483 21.0828L23.3351 21.071L23.3217 21.0591L23.3082 21.0472L23.2947 21.0351L23.2811 21.023L23.2674 21.0108L23.2536 20.9986L23.2398 20.9863L23.2258 20.9739L23.2118 20.9614L23.1977 20.9489L23.1835 20.9362L23.1692 20.9235L23.1548 20.9108L23.1404 20.8979L23.1258 20.885L23.1112 20.872L23.0965 20.8589L23.0817 20.8458L23.0668 20.8326L23.0519 20.8193L23.0368 20.8059L23.0217 20.7924L23.0065 20.7789L22.9912 20.7653L22.9758 20.7516L22.9603 20.7379L22.9447 20.724L22.9291 20.7101L22.9133 20.6961L22.8975 20.682L22.8816 20.6679L22.8655 20.6536L22.8494 20.6393L22.8333 20.6249L22.817 20.6105L22.8006 20.5959L22.7842 20.5813L22.7676 20.5666L22.751 20.5518L22.7343 20.5369L22.7174 20.522L22.7005 20.507L22.6835 20.4919L22.6664 20.4767L22.6493 20.4614L22.632 20.446L22.6146 20.4306L22.5972 20.4151L22.5796 20.3995L22.562 20.3838L22.5443 20.3681L22.5264 20.3522L22.5085 20.3363L22.4905 20.3203L22.4724 20.3042L22.4542 20.288L22.4359 20.2718L22.4175 20.2554L22.3991 20.239L22.3805 20.2225L22.3618 20.2059L22.3431 20.1892L22.3242 20.1725L22.3053 20.1556L22.2862 20.1387L22.2671 20.1217L22.2478 20.1046L22.2285 20.0874L22.2091 20.0701L22.1895 20.0528L22.1699 20.0353L22.1502 20.0178L22.1304 20.0002L22.1105 19.9825L22.0905 19.9647L22.0703 19.9468L22.0501 19.9288L22.0298 19.9108L22.0094 19.8926L21.9889 19.8744L21.9683 19.8561L21.9476 19.8377L21.9268 19.8192L21.9059 19.8006L21.8849 19.782L21.8638 19.7632L21.8426 19.7444L21.8213 19.7254L21.7999 19.7064L21.7784 19.6873L21.7568 19.6681L21.7351 19.6488L21.7133 19.6294L21.6914 19.61L21.6694 19.5904L21.6473 19.5707L21.6251 19.551L21.6027 19.5312L21.5803 19.5112L21.5578 19.4912L21.5352 19.4711L21.5125 19.4509L21.4896 19.4306L21.4667 19.4102L21.4437 19.3897L21.4205 19.3692L21.3973 19.3485L21.3739 19.3278L21.3505 19.3069L21.3269 19.286L21.3032 19.2649L21.2795 19.2438L21.2556 19.2226L21.2316 19.2013L21.2075 19.1799L21.1833 19.1583L21.159 19.1367L21.1346 19.1151L21.1101 19.0933L21.0855 19.0714L21.0608 19.0494L21.0359 19.0273L21.011 19.0051L20.9859 18.9829L20.9608 18.9605L20.9355 18.9381L20.9101 18.9155L20.8846 18.8928L20.8591 18.8701L20.8333 18.8472L20.8075 18.8243L20.7816 18.8013L20.7556 18.7781L20.7294 18.7549L20.7032 18.7315L20.6768 18.7081L20.6503 18.6846L20.6238 18.661L20.5971 18.6372L20.5703 18.6134L20.5433 18.5895L20.5163 18.5654L20.4892 18.5413L20.4619 18.5171L20.4346 18.4928L20.4071 18.4683L20.3795 18.4438L20.3518 18.4192L20.324 18.3945L20.296 18.3696L20.268 18.3447L20.2398 18.3197L20.2116 18.2945L20.1832 18.2693L20.1547 18.244L20.126 18.2185L20.0973 18.193L20.0685 18.1674L20.0395 18.1416L20.0104 18.1158L19.9812 18.0898L19.9519 18.0638L19.9225 18.0376L19.893 18.0113L19.8633 17.985L19.8335 17.9585L19.8036 17.9319L19.7736 17.9053L19.7435 17.8785L19.7133 17.8516L19.6829 17.8246L19.6524 17.7975L19.6218 17.7703L19.5911 17.743L19.5603 17.7156L19.5293 17.6881L19.4982 17.6605L19.467 17.6328L19.4357 17.6049L19.4043 17.577L19.3727 17.5489L19.3411 17.5208L19.3093 17.4925L19.2774 17.4642L19.2453 17.4357L19.2132 17.4071L19.1809 17.3784L19.1485 17.3496L19.116 17.3207L19.0833 17.2917L19.0506 17.2626L19.0177 17.2333L18.9847 17.204L18.9516 17.1745L18.9183 17.145L18.8849 17.1153L18.8514 17.0855L18.8178 17.0556L18.784 17.0256L18.7502 16.9955L18.7162 16.9653L18.6821 16.935L18.6478 16.9045L18.6134 16.874L18.5789 16.8433L18.5443 16.8126L18.5096 16.7817L18.4747 16.7507L18.4397 16.7196L18.4046 16.6883L18.3693 16.657L18.334 16.6256L18.2985 16.594L18.2628 16.5623L18.2271 16.5306L18.1912 16.4987L18.1552 16.4666L18.119 16.4345L18.0828 16.4023L18.0464 16.3699L18.0098 16.3375L17.9732 16.3049L17.9364 16.2722L17.8995 16.2394L17.8625 16.2065L17.8253 16.1734L17.788 16.1403L17.7506 16.107L17.713 16.0736L17.6753 16.0401L17.6375 16.0065L17.5995 15.9727L17.5614 15.9389L17.5232 15.9049L17.4849 15.8708L17.4464 15.8366L17.4078 15.8023L17.3691 15.7679L17.3302 15.7333L17.2912 15.6987L17.252 15.6639L17.2128 15.629L17.1734 15.5939L17.1338 15.5588L17.0942 15.5235L17.0543 15.4881L17.0144 15.4526L16.9743 15.417L16.9341 15.3813L16.8938 15.3454L16.8533 15.3094L16.8127 15.2733L16.7719 15.2371L16.7311 15.2008L16.6901 15.1643L16.6489 15.1277L16.6076 15.091L16.5662 15.0542L16.5246 15.0173L16.4829 14.9802L16.4411 14.943L16.3991 14.9057L16.357 14.8683L16.3147 14.8307L16.2724 14.793L16.2298 14.7552L16.1872 14.7173L16.1444 14.6793L16.1438 14.6787C17.2953 13.2159 18 11.3065 18 9Z" fill="black"/>
</svg>